# xmcd
#
# Track frame offsets: 
#        150
#        14117
#        38567
#        67247
#        86909
#        108011
#        131421
#        157374
#        181234
#        198889
#        215530
#        236120
#
# Disc length: 3565 seconds
#
# Revision: 0
# Processed by: cddbd v1.5.2PL0 Copyright (c) Steve Scherf et al.
# Submitted via: ExactAudioCopy v0.99pb4
#
DISCID=ad0deb0c
DTITLE=Hearts of Black Science - The Star in the Lake
DYEAR=2009
DGENRE=Rock
TTITLE0=The Star in the Lake
TTITLE1=Twilight
TTITLE2=Gold and Dust
TTITLE3=A Ride at Night
TTITLE4=Teenage Heels
TTITLE5=Transmission
TTITLE6=Metropolis
TTITLE7=The Procession
TTITLE8=Something Better
TTITLE9=White Lies
TTITLE10=Giving in to Anger
TTITLE11=Can't Stop the Waves
EXTD=
EXTT0=
EXTT1=
EXTT2=
EXTT3=
EXTT4=
EXTT5=
EXTT6=
EXTT7=
EXTT8=
EXTT9=
EXTT10=
EXTT11=
PLAYORDER=
